<svg width="40" height="40" viewBox="0 0 40 40" fill="none" xmlns="http://www.w3.org/2000/svg">
<g clip-path="url(#clip0_45_73)">
<path d="M34.5205 0H5.47945C2.45323 0 0 2.45323 0 5.47945V34.5205C0 37.5468 2.45323 40 5.47945 40H34.5205C37.5468 40 40 37.5468 40 34.5205V5.47945C40 2.45323 37.5468 0 34.5205 0Z" fill="url(#paint0_linear_45_73)"/>
<mask id="mask0_45_73" style="mask-type:luminance" maskUnits="userSpaceOnUse" x="0" y="10" width="40" height="20">
<path d="M40 10.9905H0V29.0094H40V10.9905Z" fill="white"/>
</mask>
<g mask="url(#mask0_45_73)">
<path fill-rule="evenodd" clip-rule="evenodd" d="M12.4611 26.0972C12.106 26.4523 11.5304 26.4523 11.1754 26.0972L5.72083 20.6427C5.36584 20.2877 5.36584 19.7121 5.72083 19.357L11.1754 13.9025C11.5304 13.5475 12.106 13.5475 12.4611 13.9025C12.8161 14.2575 12.8161 14.8331 12.4611 15.1881L7.64933 19.9999L12.4611 24.8116C12.8161 25.1666 12.8161 25.7422 12.4611 26.0972Z" fill="#FAFAFA"/>
<path d="M24.6732 12.3799C24.8536 11.9829 24.6293 11.4927 24.1722 11.285C23.715 11.0773 23.1982 11.2308 23.0178 11.6279L15.7813 27.5556C15.6009 27.9527 15.8252 28.4429 16.2823 28.6506C16.7394 28.8583 17.2562 28.7048 17.4366 28.3077L24.6732 12.3799Z" fill="white"/>
<path fill-rule="evenodd" clip-rule="evenodd" d="M27.5389 13.9025C27.894 13.5475 28.4696 13.5475 28.8246 13.9025L34.2792 19.357C34.6342 19.7121 34.6342 20.2877 34.2792 20.6427L28.8246 26.0972C28.4696 26.4523 27.894 26.4523 27.5389 26.0972C27.184 25.7422 27.184 25.1666 27.5389 24.8116L32.3507 19.9999L27.5389 15.1881C27.184 14.8331 27.184 14.2575 27.5389 13.9025Z" fill="#FAFAFA"/>
</g>
</g>
<defs>
<linearGradient id="paint0_linear_45_73" x1="0" y1="0" x2="33.6111" y2="33.0556" gradientUnits="userSpaceOnUse">
<stop stop-color="#3D7BFF"/>
<stop offset="1" stop-color="#9523FB"/>
</linearGradient>
<clipPath id="clip0_45_73">
<rect width="40" height="40" fill="white"/>
</clipPath>
</defs>
</svg>
