<svg xmlns="http://www.w3.org/2000/svg" width="40" height="40" viewBox="0 0 40 40" fill="none">
<g clip-path="url(#clip0_326_65)">
<path d="M33.6575 0H5.34247C2.3919 0 0 2.45323 0 5.47945V34.5205C0 37.5468 2.3919 40 5.34247 40H33.6575C36.6081 40 39 37.5468 39 34.5205V5.47945C39 2.45323 36.6081 0 33.6575 0Z" fill="#EAEAEA"/>
<mask id="mask0_326_65" style="mask-type:luminance" maskUnits="userSpaceOnUse" x="0" y="8" width="40" height="23">
<path d="M40 8H0V31H40V8Z" fill="white"/>
</mask>
<g mask="url(#mask0_326_65)">
<path fill-rule="evenodd" clip-rule="evenodd" d="M12.6705 26.6862C12.2312 27.1046 11.5189 27.1046 11.0795 26.6862L4.32947 20.2576C3.89018 19.8392 3.89018 19.1608 4.32947 18.7424L11.0795 12.3138C11.5189 11.8954 12.2312 11.8954 12.6705 12.3138C13.1098 12.7322 13.1098 13.4106 12.6705 13.829L6.71599 19.5L12.6705 25.171C13.1098 25.5894 13.1098 26.2678 12.6705 26.6862Z" fill="#D3D3D3"/>
<path d="M24.7521 10.7157C24.9626 10.2526 24.7009 9.68083 24.1678 9.4386C23.6346 9.19637 23.0318 9.37543 22.8214 9.83854L14.381 28.4161C14.1706 28.8792 14.4322 29.451 14.9654 29.6932C15.4985 29.9354 16.1013 29.7564 16.3117 29.2933L24.7521 10.7157Z" fill="#D3D3D3"/>
<path fill-rule="evenodd" clip-rule="evenodd" d="M26.3295 12.3138C26.7688 11.8954 27.4811 11.8954 27.9205 12.3138L34.6705 18.7424C35.1098 19.1608 35.1098 19.8392 34.6705 20.2576L27.9205 26.6862C27.4811 27.1046 26.7688 27.1046 26.3295 26.6862C25.8902 26.2678 25.8902 25.5894 26.3295 25.171L32.284 19.5L26.3295 13.829C25.8902 13.4106 25.8902 12.7322 26.3295 12.3138Z" fill="#D3D3D3"/>
</g>
</g>
<defs>
<clipPath id="clip0_326_65">
<rect width="40" height="40" fill="white"/>
</clipPath>
</defs>
</svg>